<?xml version="1.0" encoding="utf-8"?>
<!-- Generator: Adobe Illustrator 21.1.0, SVG Export Plug-In . SVG Version: 6.00 Build 0)  -->
<svg version="1.1" id="Livello_1" xmlns="http://www.w3.org/2000/svg" xmlns:xlink="http://www.w3.org/1999/xlink" x="0px" y="0px"
	 viewBox="0 0 720 300" style="enable-background:new 0 0 720 300;" xml:space="preserve">
<style type="text/css">
	.st0{fill:none;stroke:#FFFFFF;stroke-width:4;stroke-miterlimit:10;}
	.st1{fill:#FFFFFF;stroke:#FFFFFF;stroke-miterlimit:10;}
	.st2{fill:#FFFFFF;stroke:#FFFFFF;stroke-width:0.5;stroke-miterlimit:23.91;}
	.st3{fill:#FF03ED;}
</style>
<g>
	<path class="st0" d="M113.8,142.5c0,0-5.7-9.4-17.2-5.5c-10.3,3.5-9.2,16.2-9.2,16.2s1,11.1,13.1,12.6c9.3,1.2,13.3-6.8,13.3-6.8"
		/>
	<polyline class="st0" points="122.6,135 122.6,150.9 122.6,166.8 	"/>
	<path class="st0" d="M122.6,152.5c0,0,1.7-7.2,8.7-7.3c8.2-0.2,8.2,7.3,8.2,7.3v14.3"/>
	<circle class="st0" cx="157.9" cy="155" r="10"/>
	<line class="st0" x1="167.9" y1="155" x2="167.9" y2="166.8"/>
	<line class="st0" x1="178.3" y1="144" x2="178.3" y2="166.8"/>
	<line class="st0" x1="188.6" y1="144" x2="188.6" y2="166.8"/>
	<path class="st0" d="M188.6,152c0,0,2.7-7.2,9.5-7c6.8,0.2,7.2,5.9,7.2,5.9v15.9"/>
	<path class="st0" d="M228.9,153.2h13.3c0,0,0.1,1.8-1.7,5.8c0,0-4,8-13.3,6.8c-12.1-1.5-13.1-12.6-13.1-12.6s-2.3-12.4,9.2-16.2
		c11.5-3.8,17.2,5.5,17.2,5.5"/>
	<circle class="st0" cx="260.6" cy="155" r="10"/>
	<line class="st0" x1="270.5" y1="155" x2="270.5" y2="166.9"/>
	<line class="st0" x1="283.1" y1="137.5" x2="283.1" y2="166.9"/>
	<line class="st0" x1="277.1" y1="146" x2="291.3" y2="146"/>
	<path class="st0" d="M314.6,161.4c0,0-2.8,5.7-9.4,4.8c-8.5-1.1-9.2-8.9-9.2-8.9s0-0.5,0-1.4c0.1-2.6,1-8.2,6.5-10.1
		c8.1-2.7,12.1,3.9,12.1,3.9s1.2,1.9,1.5,5.6c0,0.6,0,1.2,0,1.9"/>
	<line class="st0" x1="316.1" y1="155.4" x2="296" y2="155.3"/>
	<circle class="st1" cx="178.3" cy="137.3" r="2.3"/>
</g>
<g>
	<path class="st2" d="M480.5,158.4c-2.9,0-5.8,0-8.7,0c-1.9,0-2.1,0.3-1.4,2.1c2.4,6.6,11.4,8.1,15.4,3.5c0.2-0.3,0.6-0.5,0.8-0.8
		c1-1.5,1.8-0.6,2.7,0.1c1.1,0.7,0.5,1.4,0,2.1c-1.7,2.1-3.8,3.3-6.4,3.9c-4.7,1-9.1,0.3-12.6-3.2c-3.9-3.9-4.5-8.8-2.9-13.8
		c2.9-8.8,13.6-9.6,18.7-5.9c2.8,2,4.5,4.9,4.8,8.4c0.4,3.7,0.3,3.7-3.4,3.7C485.2,158.4,482.9,158.4,480.5,158.4z M479.1,155.3
		c2.6,0,5.1,0,7.7,0c1,0,1.3-0.3,1-1.2c-0.7-2.5-2.1-4.4-4.3-5.8c-5.1-3.2-11.7,0.5-13.2,5.7c-0.3,1.2,0.1,1.3,1.1,1.3
		C473.9,155.3,476.5,155.3,479.1,155.3z"/>
	<path class="st2" d="M609.8,149.1c0-1.2,0.1-2.1,0-2.9c-0.1-1.3,0.5-1.5,1.6-1.5c1.1,0,1.5,0.4,1.5,1.5c0,5.9,0,11.8,0,17.7
		c0,1.3,0,2.7,0,4c0,1.1-0.6,1.2-1.5,1.2c-0.8,0-1.7,0.1-1.7-1.1c0-0.9,0-1.8,0-3.1c-2.9,3.6-6.6,5.1-10.8,4.8
		c-3.6-0.2-6.8-1.6-9-4.6c-4.5-6.1-2.9-14,1.6-17.9C596.7,142.7,605.7,143.6,609.8,149.1z M600.3,166.6c4.9,0,9.4-4.2,9.3-9.7
		c0-5.4-4.2-9.6-9.5-9.7c-5.2-0.1-9.6,4.6-9.7,9.7C590.3,161.7,595.2,167.1,600.3,166.6z"/>
	<path class="st2" d="M551.5,147.9c1.5-1.7,3.1-3,5.2-3.3c4.4-0.7,8.1-0.4,10.8,3.1c1.1,1.5,1.7,3.2,1.7,5.1c0.1,4.9,0,9.8,0,14.6
		c0,1.1-0.3,1.6-1.5,1.7c-1.3,0-1.6-0.5-1.6-1.7c0-4.4,0-8.8,0-13.2c0-2.9-0.9-5.2-3.8-6.4c-2.9-1.2-5.7-0.5-8,1.5
		c-2,1.9-2.7,4.2-2.8,6.8c-0.1,3.8,0,7.5,0,11.3c0,1.1-0.2,1.8-1.6,1.8c-1.4,0-1.6-0.6-1.6-1.8c0-9.4,0-18.9,0-28.3
		c0-1.8,1.1-3,2.3-4c1-0.8,0.8,0.3,0.8,0.8c0,3.4,0,6.8,0,10.1C551.5,146.5,551.5,147.1,551.5,147.9z"/>
	<path class="st2" d="M517.1,157c-0.6-7.4,5.7-12.8,12.5-12.6c4.2,0.1,7.6,1.3,10,4.8c0.7,1,0.6,1.8-0.4,2.4c-1,0.7-1.6,0.3-2.3-0.6
		c-2.9-3.8-7.5-4.9-11.7-2.7c-4,2.1-6.1,7-4.8,11.3c2.2,7,10.2,9.3,15.6,4.5c0.4-0.4,0.8-0.9,1.1-1.4c0.6-1,1.3-1.1,2.2-0.4
		c1,0.7,1,1.4,0.4,2.4c-1.7,2.5-4,3.8-6.8,4.5c-4.8,1.1-9.3,0.2-12.8-3.4C517.8,163.4,516.9,160.3,517.1,157z"/>
	<path class="st2" d="M501.4,156.3c0-2.4,0-4.7,0-7.1c0-1-0.3-1.5-1.4-1.4c-0.6,0-1.3,0-1.9,0c-1.2,0.1-1.9-0.1-1.9-1.6
		c0-1.4,0.7-1.5,1.8-1.5c3.4,0,3.4,0,3.4-3.4c0-0.7,0.1-1.5,0-2.2c-0.3-2,1.1-3,2.3-4.1c0.8-0.7,0.8,0.2,0.8,0.7
		c0,2.4,0.1,4.8,0,7.2c-0.1,1.4,0.3,2,1.8,1.8c1.1-0.1,2.1,0,3.2,0c1.1,0,2.1-0.2,2.1,1.5c0,1.8-1.1,1.6-2.2,1.6c-1.2,0-2.4,0-3.5,0
		c-1.1-0.1-1.4,0.4-1.4,1.4c0,4.6,0,9.1,0,13.7c0,2.5,1.2,3.7,3.8,3.7c0.6,0,1.2,0,1.8,0c0.9,0,1.5,0.1,1.5,1.3
		c0,1.1-0.5,1.5-1.6,1.5c-1.2,0-2.4,0-3.5,0c-3.1-0.1-5-2.3-5.1-6C501.3,161,501.4,158.7,501.4,156.3
		C501.4,156.3,501.4,156.3,501.4,156.3z"/>
	<path class="st2" d="M453.4,158.3c0-2.9,0-5.9,0-8.8c0-1.2-0.3-1.8-1.6-1.7c-0.4,0.1-0.9,0-1.3,0c-1.2,0.1-1.3-0.6-1.3-1.5
		c0-0.9,0-1.7,1.2-1.6c0.3,0,0.5,0,0.8,0c2.1,0,2,0,2.2-2.1c0.3-4.6,3.1-8,8.5-7.6c1.1,0.1,1.3,0.5,1.3,1.5c0,1-0.4,1.3-1.3,1.3
		c-2.8,0.1-4.6,1.4-5.2,3.8c-0.1,0.5-0.1,1.1-0.2,1.6c-0.1,1.1,0.4,1.5,1.5,1.5c1.4-0.1,2.9,0,4.3,0c1.2,0,1.3,0.7,1.3,1.6
		c0,0.9-0.1,1.6-1.3,1.6c-1.4,0-2.8,0.1-4.2,0c-1.3-0.1-1.7,0.4-1.7,1.7c0.1,6,0,11.9,0,17.9c0,1.3-0.4,1.8-1.7,1.8
		c-1-0.1-1.4-0.4-1.4-1.4C453.5,164.6,453.4,161.4,453.4,158.3C453.4,158.3,453.4,158.3,453.4,158.3z"/>
	<path class="st2" d="M623,156.9c0-3.5,0-7.1,0-10.6c0-1,0.3-1.6,1.4-1.6c1.2,0,1.4,0.6,1.4,1.6c0,7.1,0,14.1,0,21.2
		c0,1-0.3,1.6-1.4,1.6c-1.2,0-1.4-0.6-1.4-1.6C623,163.9,623,160.4,623,156.9z"/>
	<path class="st2" d="M624.2,134.8c1.3,0,2.5,1.1,2.5,2.4c0,1.3-1.1,2.5-2.4,2.5c-1.5,0-2.4-0.9-2.3-2.6
		C622.1,135.7,622.9,134.8,624.2,134.8z"/>
	<path class="st2" d="M579,169.4c-1.4,0-2.3-0.9-2.3-2.2c0-1.4,1.2-2.5,2.6-2.4c1.3,0,2.1,1,2.1,2.5
		C581.3,168.8,580.7,169.4,579,169.4z"/>
</g>
<circle class="st3" cx="387.2" cy="153" r="17.3"/>
<circle class="st3" cx="387.2" cy="98.6" r="17.3"/>
<path class="st3" d="M376.3,111.9c0,0,12.6,12-0.1,27.8s11.1,14.4,11.1,14.4v-42.2H376.3z"/>
<path class="st3" d="M397.8,111.9c0,0-12.6,12,0.1,27.8c12.7,15.8-11.1,14.4-11.1,14.4v-42.2H397.8z"/>
<circle class="st3" cx="387.2" cy="207.6" r="17.3"/>
<circle class="st3" cx="387.2" cy="153.2" r="17.3"/>
<path class="st3" d="M376.3,166.6c0,0,12.6,12-0.1,27.8s11.1,14.4,11.1,14.4v-42.2H376.3z"/>
<path class="st3" d="M397.8,166.6c0,0-12.6,12,0.1,27.8c12.7,15.8-11.1,14.4-11.1,14.4v-42.2H397.8z"/>
</svg>
